<svg width="87" height="87" viewBox="0 0 87 87" fill="none" xmlns="http://www.w3.org/2000/svg">
<path fill-rule="evenodd" clip-rule="evenodd" d="M43.4405 86.4123C67.2727 86.4123 86.5926 67.0941 86.5926 43.264C86.5926 40.3455 86.3028 37.4946 85.7504 34.7387H59.6805V51.8472H68.0927C64.5451 62.0115 54.8735 69.3037 43.4985 69.3037C29.1159 69.3037 17.4565 57.6453 17.4565 43.264C17.4565 28.8826 29.1159 17.2242 43.4985 17.2242V0.115646H43.4405C19.6084 0.115646 0.288544 19.4338 0.288544 43.264C0.288544 67.0941 19.6084 86.4123 43.4405 86.4123Z" fill="#333333"/>
<path d="M41.2973 0.168257C22.7682 3.04021 8.58534 19.0602 8.58534 38.3925C8.58534 59.7564 25.9056 77.0752 47.2713 77.0752C68.637 77.0752 85.9573 59.7564 85.9573 38.3925C85.9573 37.1603 85.8997 35.9416 85.787 34.7389H59.6833V51.8474H68.0954C64.5479 62.0117 54.8763 69.3039 43.5013 69.3039C29.1187 69.3039 17.4593 57.6455 17.4593 43.2641C17.4593 29.6646 27.8855 18.5 41.1813 17.3263C41.9457 17.2588 42.7195 17.2244 43.5013 17.2244V0.115814H43.4433C42.7238 0.115814 42.0083 0.13344 41.2973 0.168257Z" fill="#333333"/>
<path d="M68.7307 0H85.9567V17.2245H68.7307V0Z" fill="#333333"/>
<path d="M85.9567 17.2245H68.7307L59.7697 26.1558H76.3577L85.9567 17.2245Z" fill="#333333"/>
<path d="M68.7307 17.2245V0L59.7697 9.56918V26.1558L68.7307 17.2245Z" fill="#333333"/>
<path d="M68.7297 17.2245H85.9557V0H68.7297V17.2245Z" fill="#333333"/>
</svg>
